<svg width="157" height="72" viewBox="0 0 157 72" fill="none" xmlns="http://www.w3.org/2000/svg">
<path d="M150.299 15.385H12.5728V64.796H150.299V15.385Z" fill="#EBDBD9"/>
<path d="M107.353 38.7432H27.8962V41.2967H107.353V38.7432Z" fill="#795B5B"/>
<path d="M100.333 31.9117V29.231H92.2913V50.8089H100.333V48.1269H95.0997V41.1683H100.333V38.6147H95.0997V31.7845H100.333V31.9117Z" fill="#F9E9F4"/>
<path d="M42.4473 39.7643C43.8514 38.6791 44.6808 37.0193 44.7446 35.2956C44.7446 31.976 42.0645 29.2946 38.7458 29.2946H38.6816H34.9801V50.8089H39.3198C42.5747 50.8727 45.319 48.3192 45.3828 45.0634C45.4466 42.8929 44.2981 40.8496 42.4473 39.7643ZM38.8094 32.0401C40.4687 32.0401 41.8091 33.7002 41.8091 35.4877C41.8729 37.2113 40.5325 38.6793 38.8094 38.7432H37.7243V32.0401H38.8094ZM39.4476 48.1269H37.7243V41.2967H39.2562C41.0432 41.2967 42.4473 42.7647 42.4473 44.5522C42.4473 44.616 42.4473 44.6794 42.4473 44.6794C42.5111 46.4669 41.1069 48.1269 39.4476 48.1269Z" fill="#F9E9F4"/>
<path d="M51.5736 29.2946L48.0634 50.8725H50.9354L52.5309 41.2967H55.9775L57.8279 50.8725H60.6363L56.4879 29.2946H51.5736ZM52.9142 38.7432L54.0629 31.6574H54.1264L55.467 38.6796L52.9142 38.7432Z" fill="#F9E9F4"/>
<path d="M73.656 35.2956C73.656 31.976 70.9117 29.2946 67.593 29.2946C67.593 29.2946 67.5927 29.2946 67.5288 29.2946H64.402V50.8725H67.2097V41.2967L71.6772 50.8725H74.7405L69.8903 40.7219C72.2517 39.892 73.7199 37.7215 73.656 35.2956ZM67.7844 32.0401C69.4437 32.0401 70.7841 33.7002 70.7841 35.4877C70.8479 37.2113 69.5075 38.6793 67.7844 38.7432H67.2739V32.0401H67.7844Z" fill="#F9E9F4"/>
<path d="M88.0158 35.2956C88.0158 31.976 85.2715 29.2946 81.9528 29.2946C81.9528 29.2946 81.9524 29.2946 81.8886 29.2946H78.7617V50.8725H81.5695V41.2967L86.037 50.8725H89.1002L84.2501 40.7219C86.6115 39.892 88.0796 37.7215 88.0158 35.2956ZM82.0799 32.0401C83.7393 32.0401 85.0796 33.7002 85.0796 35.4877C85.1435 37.2113 83.8031 38.6793 82.0799 38.7432H81.5695V32.0401H82.0799Z" fill="#F9E9F4"/>
<path d="M116.799 48.2553V29.2946H111.821V31.9765H113.927V48.2553H111.502V50.936H119.16V48.2553H116.799Z" fill="#795B5B"/>
</svg>
